<svg id="Capa_1" enable-background="new 0 0 512 512" height="512" viewBox="0 0 512 512" width="512" xmlns="http://www.w3.org/2000/svg"><g><path d="m417.791 434.622 10.074 11.113c3.934-3.565 7.802-7.297 11.499-11.092l-10.742-10.469c-3.482 3.575-7.127 7.09-10.831 10.448z"/><path d="m437.02 74.98c-48.352-48.351-112.64-74.98-181.02-74.98s-132.668 26.629-181.02 74.98c-48.351 48.353-74.98 112.64-74.98 181.02s26.629 132.667 74.98 181.02c48.352 48.351 112.64 74.98 181.02 74.98 58.244 0 113.124-19.059 158.705-55.117l-9.307-11.764c-42.904 33.941-94.566 51.881-149.398 51.881-132.888 0-241-108.112-241-241s108.112-241 241-241 241 108.112 241 241c0 57.605-20.647 113.358-58.14 156.987l11.377 9.776c39.828-46.348 61.763-105.572 61.763-166.763 0-68.38-26.629-132.667-74.98-181.02z"/><path d="m118.167 96.038-9.971-11.207-.504.449c-3.602 3.203-7.325 6.515-10.85 10.101l10.697 10.515c3.172-3.227 6.547-6.229 10.12-9.407z"/><path d="m141.249 78.756-8.158-12.588c-4.401 2.765-8.829 5.771-12.892 9.008l9.348 11.731c1.229-.979 9.071-6.496 11.702-8.151z"/><path d="m256 436c99.252 0 180-80.748 180-180s-80.748-180-180-180-180 80.748-180 180 80.748 180 180 180zm0-345c90.981 0 165 74.019 165 165s-74.019 165-165 165-165-74.019-165-165 74.019-165 165-165z"/><path d="m256 360.5c57.621 0 104.5-46.878 104.5-104.5s-46.879-104.5-104.5-104.5-104.5 46.878-104.5 104.5 46.879 104.5 104.5 104.5zm0-194c49.351 0 89.5 40.149 89.5 89.5s-40.149 89.5-89.5 89.5-89.5-40.149-89.5-89.5 40.149-89.5 89.5-89.5z"/><path d="m256 301.5c25.089 0 45.5-20.411 45.5-45.5s-20.411-45.5-45.5-45.5-45.5 20.411-45.5 45.5 20.411 45.5 45.5 45.5zm0-76c16.817 0 30.5 13.682 30.5 30.5s-13.683 30.5-30.5 30.5-30.5-13.682-30.5-30.5 13.683-30.5 30.5-30.5z"/><path d="m248.5 113h15v15h-15z"/><path d="m113 248.5h15v15h-15z"/><path d="m248.5 384h15v15h-15z"/><path d="m384 248.5h15v15h-15z"/></g></svg>